<svg width="100" height="100" xmlns="http://www.w3.org/2000/svg" style="margin: auto;" class="el-tooltip" color-interpolation-filters="sRGB" preserveAspectRatio="xMidYMid meet" version="1.0">
 <g>
  <title>background</title>
  <rect fill="none" id="canvas_background" height="102" width="102" y="-1" x="-1"/>
 </g>
 <g>
  <title>Layer 1</title>
  <g id="svg_5" class="icon-text-wrapper icon-svg-group iconsvg" fill="#0a4891">
   <g id="svg_6" class="iconsvg-imagesvg">
    <rect id="svg_7" class="image-rect" height="58.162955" width="60" y="-43" x="20.000002" stroke-width="2" fill-opacity="0" fill="#0a4891"/>
    <g y="42.3806" x="140.000008" id="svg_2">
     <svg id="svg_8" class="image-svg-svg primary" filtersec="colorsb16689535" height="58.162955" width="60" y="8" x="20.000002">
      <svg id="svg_9" viewBox="0 0 39.52 38.31" xmlns="http://www.w3.org/2000/svg">
       <defs>
        <linearGradient x1="-0.000013" y2="0.49902" x2="1.000327" y1="0.49902" id="svg_3">
         <stop stop-color="#5eb6fe" offset="0"/>
         <stop stop-color="#0a4891" offset="1"/>
        </linearGradient>
       </defs>
       <g id="svg_10">
        <path id="svg_11" fill="url(#svg_3)" fill-rule="evenodd" d="m1.31,27a19.940001,19.940001 0 0 1 13.26,-26.31a19.879999,19.879999 0 0 1 24.59,15.510001a20.540001,20.540001 0 0 1 0,7.519999a14.76,14.76 0 0 1 -2.380001,6c-0.689999,0.940001 -0.599998,0.27 -0.419998,-0.4c0.119999,-0.5 0.259998,-1 0.389999,-1.5c1.669998,-7.18 -0.799999,-17.82 -9.25,-19.509999c-0.93,-0.160001 -1.16,0 -1,0.349999a3.35,3.35 0 0 0 0.77,1c2.07,2 3.549999,4.23 3.43,7.66c-0.200001,4.68 -3.310001,9.68 -7.34,11.559999s-0.200001,0.1 -0.49,0.200001a5.65,5.65 0 0 1 -1.720001,0.389999c-2.139999,0.1 0.110001,-1.599998 0.59,-2.16a5.19,5.19 0 0 0 1.51,-3.309999c-0.08,-1.33 -1.219999,-1.1 -2.139999,-0.690001a1.38,1.38 0 0 1 -0.26,0.09a4.71,4.71 0 0 1 -6.110001,-5.279999a0.5,0.5 0 0 1 0,-0.09c0.76,-3.73 5.17,-5.150001 8.210001,-3.130001l0.08,0.05c3.25,2.070001 4.309999,4.7 4,8.490001c0,0 0,0.42 0.07,0.279999a3.8,3.8 0 0 0 0.309999,-0.679998c3.210001,-8.220001 -7.58,-15.070001 -13,-8.610001a8,8 0 0 0 -0.91,8.57c0.34,0.690001 1.84,2.4 0.35,2.67a3.87,3.87 0 0 1 -1.85,-0.34a9.88,9.88 0 0 1 -2.7,-1.73c-0.56,-0.51 -2.48,-2.809999 -2.15,-0.530001c1.81,13.220001 20,11.790001 25.910001,3.85c0.619999,-0.84 1.84,-1.32 1.16,0.200001a18.84,18.84 0 0 1 -9.220001,9.42a17,17 0 0 1 -23.69,-9.540001z"/>
       </g>
      </svg>
     </svg>
    </g>
    <!---->
   </g>
   <g id="svg_12">
    <g id="svg_13" class="tp-name iconsvg-namesvg">
     <g id="svg_14">
      <path id="svg_15" d="m26.845325,87.942291l-1.334221,-3.93512l-5.493114,0l-1.410213,3.93512l-1.857777,0l5.121559,-13.582886l2.077324,0l4.902008,13.582886l-2.005566,0zm-4.082886,-11.577324l-2.153332,6.012436l4.230667,0l-2.001331,-6.012436l-0.076004,0zm7.57045,1.633995l1.70578,0l0,9.943329l-1.70578,0l0,-9.943329zm1.70578,-3.639557l0,1.857773l-1.70578,0l0,-1.857773l1.70578,0zm4.306648,7.79422l0,0l0,5.788666l-1.705769,0l0,-9.943329l1.62978,0l0,1.705765q1.11467,-2.005554 2.820454,-2.005554l0,0q0.147766,0 0.299774,0.076012l0,0q0.071777,0 0.147781,0l0,0l0,1.781776l-0.667118,0q-2.377106,0.147766 -2.524902,2.596664zm4.378452,-7.79422l1.70578,0l0,13.582886l-1.70578,0l0,-13.582886zm10.910233,10.466881l0,0l1.634003,0q-0.299774,1.70578 -1.781784,2.744453l0,0q-0.81488,0.519333 -2.672668,0.519333l0,0q-4.230667,-0.147781 -4.454437,-4.821785l0,0q0.151993,-5.421333 4.75,-5.569115l0,0q4.230667,0.076012 4.306671,5.864677l0,0l-7.274902,0q0,3.263771 2.896454,3.263771l0,0q2.077332,-0.147766 2.596664,-2.001335zm-5.493118,-2.600891l0,0l5.569122,0q-0.223785,-2.968216 -2.82045,-2.968216l0,0q-2.448883,0.22377 -2.748672,2.968216zm11.653336,-7.86599l6.827347,10.986221l0,-10.986221l1.781784,0l0,13.582886l-2.077347,0l-6.903336,-10.986221l-0.071777,0l0,10.986221l-1.781784,0l0,-13.582886l2.225113,0zm18.037338,10.466881l0,0l1.629791,0q-0.295563,1.70578 -1.781784,2.744453l0,0q-0.814896,0.519333 -2.668442,0.519333l0,0q-4.230682,-0.147781 -4.454453,-4.821785l0,0q0.147766,-5.421333 4.749985,-5.569115l0,0q4.230682,0.076012 4.30246,5.864677l0,0l-7.270676,0q0,3.263771 2.892227,3.263771l0,0q2.077332,-0.147766 2.600891,-2.001335zm-5.493118,-2.600891l0,0l5.564911,0q-0.223785,-2.968216 -2.820465,-2.968216l0,0q-2.448883,0.22377 -2.744446,2.968216zm12.91156,-4.226433l0,1.410217l-1.629776,0l0,6.45578q0,0.814896 0.962662,0.814896l0,0l0.667114,0l0,1.262436q-0.443344,0 -1.038651,0l0,0q-0.147797,0 -0.223785,0l0,0q-2.149124,0 -2.077332,-1.929565l0,0l0,-6.603546l-1.262451,0l0,-1.410217l1.262451,0l0,-2.748672l1.709991,0l0,2.748672l1.629776,0z"/>
     </g>
     <!---->
     <!---->
     <!---->
     <!---->
     <!---->
     <!---->
     <!---->
    </g>
    <!---->
   </g>
  </g>
 </g>
</svg>